<?xml version="1.0" standalone="no"?>
<!DOCTYPE svg PUBLIC "-//W3C//DTD SVG 20010904//EN"
 "http://www.w3.org/TR/2001/REC-SVG-20010904/DTD/svg10.dtd">
<svg version="1.0" xmlns="http://www.w3.org/2000/svg"
 width="130.000000pt" height="130.000000pt" viewBox="0 0 130.000000 130.000000"
 preserveAspectRatio="xMidYMid meet">
<metadata>
Created by potrace 1.14, written by Peter Selinger 2001-2017
</metadata>
<g transform="translate(0.000000,130.000000) scale(0.100000,-0.100000)"
fill="#000000" stroke="none">
<path d="M513 1263 c-20 -10 -41 -41 -75 -111 -55 -113 -69 -166 -69 -273 0
-70 -2 -79 -21 -85 -38 -12 -137 -124 -173 -196 -19 -39 -35 -78 -35 -87 0 -9
-7 -25 -15 -35 -29 -38 -10 -97 37 -117 24 -10 35 -9 63 4 38 18 51 49 41 97
-5 29 -4 30 32 29 20 0 57 -4 81 -7 43 -7 44 -8 72 -75 15 -37 32 -73 38 -81
13 -16 4 -26 -24 -26 -36 0 -115 -31 -124 -49 -14 -27 -10 -134 7 -153 16 -20
91 -43 172 -54 157 -21 471 -5 552 29 52 22 59 37 56 114 -3 68 -3 68 -40 86
-20 10 -50 20 -65 23 -15 2 -38 7 -51 9 l-23 6 24 32 c61 81 67 230 13 312
-22 33 -20 98 4 145 26 52 34 55 64 25 34 -33 79 -33 113 1 21 21 24 32 20 61
-3 19 -11 41 -17 48 -13 15 -112 49 -175 60 -61 11 -176 6 -234 -9 l-52 -13
-47 34 c-26 20 -60 52 -75 72 -25 31 -26 36 -11 40 26 5 53 42 54 72 0 34 -33
75 -64 81 -14 3 -38 -1 -53 -9z m365 -611 c17 -11 30 -62 23 -89 -8 -30 -39
-65 -51 -58 -6 4 -4 12 5 21 23 23 1 58 -31 51 -23 -4 -25 -2 -18 27 11 52 37
69 72 48z m-178 -103 c0 -67 -54 -76 -91 -16 -29 48 -25 64 12 59 25 -4 31 -1
36 18 l6 23 18 -24 c10 -13 19 -40 19 -60z m-156 -114 c78 -102 240 -142 353
-88 l42 21 -17 -23 c-40 -53 -146 -97 -213 -89 -131 18 -216 96 -234 217 -4
26 -4 59 0 74 6 26 7 25 24 -24 10 -28 30 -68 45 -88z"/>
</g>
</svg>
